<?xml version="1.0" encoding="UTF-8"?>
<svg width="360px" height="218px" viewBox="0 0 360 218" version="1.1" xmlns="http://www.w3.org/2000/svg" xmlns:xlink="http://www.w3.org/1999/xlink" style="background: #192529;">
    <!-- Generator: Sketch 44.1 (41455) - http://www.bohemiancoding.com/sketch -->
    <title>Coming Soon art</title>
    <desc>Created with Sketch.</desc>
    <defs></defs>
    <g id="Capabilities" stroke="none" stroke-width="1" fill="none" fill-rule="evenodd">
        <g id="Coming-Soon-art">
            <g id="Talk---coming-soon">
                <g id="Group-2">
                    <rect id="Rectangle-4" fill="#192529" x="0" y="0" width="360" height="218"></rect>
                    <path d="M92.7391694,156.337598 L98.7091694,156.337598 L98.7091694,157.192598 L92.7391694,157.192598 L92.7391694,156.337598 Z M116.164168,155.617598 C116.164168,154.827594 116.274167,154.117601 116.494168,153.487598 C116.71417,152.857595 117.019166,152.3226 117.409168,151.882598 C117.79917,151.442595 118.261666,151.105099 118.796668,150.870098 C119.331671,150.635096 119.914165,150.517598 120.544168,150.517598 C121.144171,150.517598 121.669166,150.640096 122.119168,150.885098 C122.569171,151.130099 122.939167,151.412596 123.229168,151.732598 L122.524168,152.527598 C122.264167,152.247596 121.97667,152.025098 121.661668,151.860098 C121.346667,151.695097 120.979171,151.612598 120.559168,151.612598 C120.089166,151.612598 119.66417,151.705097 119.284168,151.890098 C118.904167,152.075099 118.57917,152.340096 118.309168,152.685098 C118.039167,153.030099 117.829169,153.447595 117.679168,153.937598 C117.529168,154.4276 117.454168,154.977595 117.454168,155.587598 C117.454168,156.207601 117.526668,156.765095 117.671668,157.260098 C117.816669,157.7551 118.019167,158.177596 118.279168,158.527598 C118.53917,158.877599 118.856667,159.147597 119.231668,159.337598 C119.60667,159.527599 120.029166,159.622598 120.499168,159.622598 C120.979171,159.622598 121.396667,159.527599 121.751668,159.337598 C122.10667,159.147597 122.444167,158.877599 122.764168,158.527598 L123.469168,159.292598 C123.079166,159.7426 122.639171,160.092596 122.149168,160.342598 C121.659166,160.592599 121.099172,160.717598 120.469168,160.717598 C119.849165,160.717598 119.276671,160.602599 118.751668,160.372598 C118.226666,160.142597 117.77167,159.8101 117.386668,159.375098 C117.001666,158.940095 116.701669,158.405101 116.486668,157.770098 C116.271667,157.135094 116.164168,156.417602 116.164168,155.617598 Z M131.827501,160.717598 C131.207498,160.717598 130.640004,160.597599 130.125001,160.357598 C129.609999,160.117596 129.167503,159.7751 128.797501,159.330098 C128.4275,158.885095 128.140002,158.345101 127.935001,157.710098 C127.73,157.075094 127.627501,156.362602 127.627501,155.572598 C127.627501,154.782594 127.73,154.075101 127.935001,153.450098 C128.140002,152.825095 128.4275,152.2951 128.797501,151.860098 C129.167503,151.425095 129.609999,151.092599 130.125001,150.862598 C130.640004,150.632597 131.207498,150.517598 131.827501,150.517598 C132.447505,150.517598 133.014999,150.635096 133.530001,150.870098 C134.045004,151.105099 134.49,151.440095 134.865001,151.875098 C135.240003,152.3101 135.53,152.840095 135.735001,153.465098 C135.940002,154.090101 136.042501,154.792594 136.042501,155.572598 C136.042501,156.362602 135.940002,157.075094 135.735001,157.710098 C135.53,158.345101 135.240003,158.885095 134.865001,159.330098 C134.49,159.7751 134.045004,160.117596 133.530001,160.357598 C133.014999,160.597599 132.447505,160.717598 131.827501,160.717598 Z M131.827501,159.622598 C132.267504,159.622598 132.665,159.527599 133.020001,159.337598 C133.375003,159.147597 133.68,158.875099 133.935001,158.520098 C134.190003,158.165096 134.387501,157.7401 134.527501,157.245098 C134.667502,156.750095 134.737501,156.192601 134.737501,155.572598 C134.737501,154.962595 134.667502,154.4126 134.527501,153.922598 C134.387501,153.432595 134.190003,153.017599 133.935001,152.677598 C133.68,152.337596 133.375003,152.075099 133.020001,151.890098 C132.665,151.705097 132.267504,151.612598 131.827501,151.612598 C131.387499,151.612598 130.990003,151.705097 130.635001,151.890098 C130.28,152.075099 129.975003,152.337596 129.720001,152.677598 C129.465,153.017599 129.267502,153.432595 129.127501,153.922598 C128.987501,154.4126 128.917501,154.962595 128.917501,155.572598 C128.917501,156.192601 128.987501,156.750095 129.127501,157.245098 C129.267502,157.7401 129.465,158.165096 129.720001,158.520098 C129.975003,158.875099 130.28,159.147597 130.635001,159.337598 C130.990003,159.527599 131.387499,159.622598 131.827501,159.622598 Z M141.490834,150.697598 L142.960834,150.697598 L144.865834,155.977598 L145.585834,157.987598 L145.645834,157.987598 L146.335834,155.977598 L148.225834,150.697598 L149.695834,150.697598 L149.695834,160.537598 L148.510834,160.537598 L148.510834,155.122598 C148.510834,154.682595 148.528334,154.1976 148.563334,153.667598 C148.598335,153.137595 148.635834,152.6526 148.675834,152.212598 L148.615834,152.212598 L147.820834,154.402598 L145.930834,159.547598 L145.225834,159.547598 L143.320834,154.402598 L142.540834,152.212598 L142.480834,152.212598 C142.510835,152.6526 142.545834,153.137595 142.585834,153.667598 C142.625835,154.1976 142.645834,154.682595 142.645834,155.122598 L142.645834,160.537598 L141.490834,160.537598 L141.490834,150.697598 Z M155.729167,150.697598 L156.974167,150.697598 L156.974167,160.537598 L155.729167,160.537598 L155.729167,150.697598 Z M163.0075,150.697598 L164.2975,150.697598 L167.8525,156.877598 L168.9175,158.917598 L168.9775,158.917598 C168.9475,158.417595 168.915001,157.9001 168.88,157.365098 C168.845,156.830095 168.8275,156.3026 168.8275,155.782598 L168.8275,150.697598 L170.0125,150.697598 L170.0125,160.537598 L168.7225,160.537598 L165.1525,154.342598 L164.0875,152.317598 L164.0275,152.317598 C164.067501,152.8176 164.105,153.325095 164.14,153.840098 C164.175001,154.3551 164.1925,154.872595 164.1925,155.392598 L164.1925,160.537598 L163.0075,160.537598 L163.0075,150.697598 Z M175.475833,155.617598 C175.475833,154.827594 175.588332,154.117601 175.813333,153.487598 C176.038335,152.857595 176.353331,152.3226 176.758333,151.882598 C177.163336,151.442595 177.640831,151.105099 178.190833,150.870098 C178.740836,150.635096 179.34583,150.517598 180.005833,150.517598 C180.685837,150.517598 181.253331,150.645096 181.708333,150.900098 C182.163336,151.155099 182.535832,151.432596 182.825833,151.732598 L182.120833,152.527598 C181.870832,152.267596 181.583335,152.050099 181.258333,151.875098 C180.933332,151.700097 180.520836,151.612598 180.020833,151.612598 C179.520831,151.612598 179.070835,151.705097 178.670833,151.890098 C178.270831,152.075099 177.930835,152.340096 177.650833,152.685098 C177.370832,153.030099 177.153334,153.447595 176.998333,153.937598 C176.843333,154.4276 176.765833,154.977595 176.765833,155.587598 C176.765833,156.207601 176.838333,156.765095 176.983333,157.260098 C177.128334,157.7551 177.338332,158.177596 177.613333,158.527598 C177.888335,158.877599 178.228331,159.147597 178.633333,159.337598 C179.038336,159.527599 179.505831,159.622598 180.035833,159.622598 C180.385835,159.622598 180.718332,159.570098 181.033333,159.465098 C181.348335,159.360097 181.605832,159.217599 181.805833,159.037598 L181.805833,156.472598 L179.720833,156.472598 L179.720833,155.437598 L182.945833,155.437598 L182.945833,159.577598 C182.625832,159.907599 182.203336,160.180097 181.678333,160.395098 C181.153331,160.610099 180.560837,160.717598 179.900833,160.717598 C179.25083,160.717598 178.655836,160.602599 178.115833,160.372598 C177.575831,160.142597 177.110835,159.8101 176.720833,159.375098 C176.330832,158.940095 176.025835,158.405101 175.805833,157.770098 C175.585832,157.135094 175.475833,156.417602 175.475833,155.617598 Z M195.0275,158.392598 C195.377501,158.7626 195.789997,159.060097 196.265,159.285098 C196.740002,159.510099 197.232497,159.622598 197.7425,159.622598 C198.392503,159.622598 198.897498,159.475099 199.2575,159.180098 C199.617501,158.885096 199.7975,158.4976 199.7975,158.017598 C199.7975,157.767596 199.755,157.555099 199.67,157.380098 C199.584999,157.205097 199.47,157.055098 199.325,156.930098 C199.179999,156.805097 199.007501,156.692598 198.8075,156.592598 C198.607499,156.492597 198.392501,156.387598 198.1625,156.277598 L196.7525,155.662598 C196.522498,155.562597 196.287501,155.442598 196.0475,155.302598 C195.807498,155.162597 195.5925,154.992599 195.4025,154.792598 C195.212499,154.592597 195.0575,154.355099 194.9375,154.080098 C194.817499,153.805096 194.7575,153.487599 194.7575,153.127598 C194.7575,152.757596 194.834999,152.412599 194.99,152.092598 C195.145,151.772596 195.359998,151.495099 195.635,151.260098 C195.910001,151.025096 196.234998,150.842598 196.61,150.712598 C196.985001,150.582597 197.397497,150.517598 197.8475,150.517598 C198.437502,150.517598 198.982497,150.630097 199.4825,150.855098 C199.982502,151.080099 200.407498,151.372596 200.7575,151.732598 L200.0825,152.542598 C199.782498,152.252596 199.450001,152.025098 199.085,151.860098 C198.719998,151.695097 198.307502,151.612598 197.8475,151.612598 C197.297497,151.612598 196.855001,151.740096 196.52,151.995098 C196.184998,152.250099 196.0175,152.602595 196.0175,153.052598 C196.0175,153.292599 196.064999,153.495097 196.16,153.660098 C196.255,153.825098 196.382499,153.970097 196.5425,154.095098 C196.7025,154.220098 196.877499,154.330097 197.0675,154.425098 C197.2575,154.520098 197.452499,154.607597 197.6525,154.687598 L199.0475,155.287598 C199.327501,155.407598 199.592498,155.545097 199.8425,155.700098 C200.092501,155.855098 200.307499,156.035097 200.4875,156.240098 C200.6675,156.445099 200.809999,156.685096 200.915,156.960098 C201.02,157.235099 201.0725,157.552596 201.0725,157.912598 C201.0725,158.3026 200.995,158.667596 200.84,159.007598 C200.684999,159.347599 200.462501,159.645096 200.1725,159.900098 C199.882498,160.155099 199.532502,160.355097 199.1225,160.500098 C198.712497,160.645098 198.247502,160.717598 197.7275,160.717598 C197.037496,160.717598 196.397502,160.587599 195.8075,160.327598 C195.217497,160.067596 194.707502,159.7126 194.2775,159.262598 L195.0275,158.392598 Z M209.970833,160.717598 C209.350829,160.717598 208.783335,160.597599 208.268333,160.357598 C207.75333,160.117596 207.310834,159.7751 206.940833,159.330098 C206.570831,158.885095 206.283334,158.345101 206.078333,157.710098 C205.873332,157.075094 205.770833,156.362602 205.770833,155.572598 C205.770833,154.782594 205.873332,154.075101 206.078333,153.450098 C206.283334,152.825095 206.570831,152.2951 206.940833,151.860098 C207.310834,151.425095 207.75333,151.092599 208.268333,150.862598 C208.783335,150.632597 209.350829,150.517598 209.970833,150.517598 C210.590836,150.517598 211.15833,150.635096 211.673333,150.870098 C212.188335,151.105099 212.633331,151.440095 213.008333,151.875098 C213.383334,152.3101 213.673332,152.840095 213.878333,153.465098 C214.083334,154.090101 214.185833,154.792594 214.185833,155.572598 C214.185833,156.362602 214.083334,157.075094 213.878333,157.710098 C213.673332,158.345101 213.383334,158.885095 213.008333,159.330098 C212.633331,159.7751 212.188335,160.117596 211.673333,160.357598 C211.15833,160.597599 210.590836,160.717598 209.970833,160.717598 Z M209.970833,159.622598 C210.410835,159.622598 210.808331,159.527599 211.163333,159.337598 C211.518334,159.147597 211.823331,158.875099 212.078333,158.520098 C212.333334,158.165096 212.530832,157.7401 212.670833,157.245098 C212.810833,156.750095 212.880833,156.192601 212.880833,155.572598 C212.880833,154.962595 212.810833,154.4126 212.670833,153.922598 C212.530832,153.432595 212.333334,153.017599 212.078333,152.677598 C211.823331,152.337596 211.518334,152.075099 211.163333,151.890098 C210.808331,151.705097 210.410835,151.612598 209.970833,151.612598 C209.53083,151.612598 209.133334,151.705097 208.778333,151.890098 C208.423331,152.075099 208.118334,152.337596 207.863333,152.677598 C207.608331,153.017599 207.410833,153.432595 207.270833,153.922598 C207.130832,154.4126 207.060833,154.962595 207.060833,155.572598 C207.060833,156.192601 207.130832,156.750095 207.270833,157.245098 C207.410833,157.7401 207.608331,158.165096 207.863333,158.520098 C208.118334,158.875099 208.423331,159.147597 208.778333,159.337598 C209.133334,159.527599 209.53083,159.622598 209.970833,159.622598 Z M223.264166,160.717598 C222.644162,160.717598 222.076668,160.597599 221.561666,160.357598 C221.046663,160.117596 220.604167,159.7751 220.234166,159.330098 C219.864164,158.885095 219.576667,158.345101 219.371666,157.710098 C219.166665,157.075094 219.064166,156.362602 219.064166,155.572598 C219.064166,154.782594 219.166665,154.075101 219.371666,153.450098 C219.576667,152.825095 219.864164,152.2951 220.234166,151.860098 C220.604167,151.425095 221.046663,151.092599 221.561666,150.862598 C222.076668,150.632597 222.644162,150.517598 223.264166,150.517598 C223.884169,150.517598 224.451663,150.635096 224.966666,150.870098 C225.481668,151.105099 225.926664,151.440095 226.301666,151.875098 C226.676667,152.3101 226.966665,152.840095 227.171666,153.465098 C227.376667,154.090101 227.479166,154.792594 227.479166,155.572598 C227.479166,156.362602 227.376667,157.075094 227.171666,157.710098 C226.966665,158.345101 226.676667,158.885095 226.301666,159.330098 C225.926664,159.7751 225.481668,160.117596 224.966666,160.357598 C224.451663,160.597599 223.884169,160.717598 223.264166,160.717598 Z M223.264166,159.622598 C223.704168,159.622598 224.101664,159.527599 224.456666,159.337598 C224.811667,159.147597 225.116664,158.875099 225.371666,158.520098 C225.626667,158.165096 225.824165,157.7401 225.964166,157.245098 C226.104166,156.750095 226.174166,156.192601 226.174166,155.572598 C226.174166,154.962595 226.104166,154.4126 225.964166,153.922598 C225.824165,153.432595 225.626667,153.017599 225.371666,152.677598 C225.116664,152.337596 224.811667,152.075099 224.456666,151.890098 C224.101664,151.705097 223.704168,151.612598 223.264166,151.612598 C222.824163,151.612598 222.426667,151.705097 222.071666,151.890098 C221.716664,152.075099 221.411667,152.337596 221.156666,152.677598 C220.901664,153.017599 220.704166,153.432595 220.564166,153.922598 C220.424165,154.4126 220.354166,154.962595 220.354166,155.572598 C220.354166,156.192601 220.424165,156.750095 220.564166,157.245098 C220.704166,157.7401 220.901664,158.165096 221.156666,158.520098 C221.411667,158.875099 221.716664,159.147597 222.071666,159.337598 C222.426667,159.527599 222.824163,159.622598 223.264166,159.622598 Z M232.927499,150.697598 L234.217499,150.697598 L237.772499,156.877598 L238.837499,158.917598 L238.897499,158.917598 C238.867498,158.417595 238.834999,157.9001 238.799999,157.365098 C238.764998,156.830095 238.747499,156.3026 238.747499,155.782598 L238.747499,150.697598 L239.932499,150.697598 L239.932499,160.537598 L238.642499,160.537598 L235.072499,154.342598 L234.007499,152.317598 L233.947499,152.317598 C233.987499,152.8176 234.024998,153.325095 234.059999,153.840098 C234.094999,154.3551 234.112499,154.872595 234.112499,155.392598 L234.112499,160.537598 L232.927499,160.537598 L232.927499,150.697598 Z M257.957498,156.337598 L263.927498,156.337598 L263.927498,157.192598 L257.957498,157.192598 L257.957498,156.337598 Z" id="–-Coming-soon-–" fill="#F2F2F2" opacity="0.5"></path>
                    <g id="Group" opacity="0.5" transform="translate(128.500000, 60.360840)" stroke="#FFFFFF">
                        <path d="M94.8657721,42.4738955 L91.2664767,38.8746001 L91.4522325,38.5441223 C92.1484633,37.3054591 92.7082385,35.9936849 93.1201248,34.6294889 L93.2274536,34.2740084 L98.2622765,34.2740084 C99.0980631,34.2740084 99.7707924,33.6033091 99.7707924,32.7739925 L99.7707924,25.1396754 C99.7707924,24.3105897 99.0965852,23.6396595 98.2622765,23.6396595 L93.2274536,23.6396595 L93.1201248,23.284179 C92.7082385,21.9199831 92.1484633,20.6082088 91.4522325,19.3695457 L91.2664767,19.0390678 L94.8657721,15.4397725 C95.4567624,14.8487821 95.4581979,13.8988346 94.8717825,13.3124192 L89.4735051,7.9141418 C88.8872529,7.32788965 87.9360971,7.33020691 87.3461518,7.92015222 L83.5981214,11.6681827 L83.2741181,11.5023335 C82.0766521,10.8893803 80.8178244,10.4011407 79.5150068,10.0466992 L79.1462648,9.94638016 L79.1462648,4.52364779 C79.1462648,3.68786121 78.4755655,3.01513189 77.6462489,3.01513189 L70.0119317,3.01513189 C69.182846,3.01513189 68.5119159,3.68933913 68.5119159,4.52364779 L68.5119159,10.2443524 L68.1696983,10.3581594 C66.9898473,10.7505274 65.852215,11.2545893 64.7706361,11.8625259 L64.4401582,12.0482817 L60.3120288,7.92015222 C59.7210384,7.32916186 58.771091,7.32772641 58.1846756,7.9141418 L52.7863981,13.3124192 C52.200146,13.8986714 52.2024633,14.8498271 52.7924086,15.4397725 L57.0692731,19.716637 L56.9034239,20.0406402 C56.3718162,21.0791896 55.9338848,22.1641668 55.5957239,23.284179 L55.4883951,23.6396595 L49.3959041,23.6396595 C48.5601176,23.6396595 47.8873882,24.3103588 47.8873882,25.1396754 L47.8873882,32.7739925 C47.8873882,33.6030783 48.5615955,34.2740084 49.3959041,34.2740084 L55.4883951,34.2740084 L55.5957239,34.6294889 C55.9338848,35.7495012 56.3718162,36.8344783 56.9034239,37.8730277 L57.0692731,38.197031 L52.7924086,42.4738955 C52.2014182,43.0648858 52.1999828,44.0148333 52.7863981,44.6012487 L58.1846756,49.9995261 C58.7709277,50.5857783 59.7220835,50.583461 60.3120288,49.9935157 L64.4401582,45.8653863 L64.7706361,46.0511421 C65.852215,46.6590786 66.9898473,47.1631405 68.1696983,47.5555086 L68.5119159,47.6693155 L68.5119159,53.3900201 C68.5119159,54.2258067 69.1826151,54.8985361 70.0119317,54.8985361 L77.6462489,54.8985361 C78.4753346,54.8985361 79.1462648,54.2243288 79.1462648,53.3900201 L79.1462648,47.9672878 L79.5150068,47.8669687 C80.8178244,47.5125272 82.0766521,47.0242876 83.2741181,46.4113345 L83.5981214,46.2454852 L87.3461518,49.9935157 C87.9371422,50.5845061 88.8870897,50.5859415 89.4735051,49.9995261 L94.8717825,44.6012487 C95.4580346,44.0149966 95.4557174,43.0638408 94.8657721,42.4738955 Z M54.7492788,22.6396595 L55.1170652,22.6396595 L54.6384066,22.99514 C54.6742976,22.8762666 54.7112573,22.757769 54.7492792,22.6396595 Z M74.3579244,37.9181786 C69.4087104,37.9181786 65.3965797,33.906048 65.3965797,28.956834 C65.3965797,24.00762 69.4087104,19.9954893 74.3579244,19.9954893 C79.3071384,19.9954893 83.319269,24.00762 83.319269,28.956834 C83.319269,33.906048 79.3071384,37.9181786 74.3579244,37.9181786 Z" transform="translate(73.829090, 28.956834) rotate(5.000000) translate(-73.829090, -28.956834) "></path>
                        <path d="M38.5085633,48.982827 L35.8266667,46.3009304 L36.0124225,45.9704526 C36.5695118,44.9793359 37.0174095,43.9297349 37.3469734,42.8381965 L37.4543022,42.4827161 L41.2009974,42.4827161 C42.0296021,42.4827161 42.6975437,41.8093696 42.6975437,40.9731956 L42.6975437,35.6249386 C42.6975437,34.7895959 42.0273691,34.1154181 41.2009974,34.1154181 L37.4543022,34.1154181 L37.3469734,33.7599377 C37.0174095,32.6683993 36.5695118,31.6187983 36.0124225,30.6276816 L35.8266667,30.2972038 L38.5085633,27.6153072 C39.0944753,27.0293952 39.0906535,26.0809613 38.4993892,25.489697 L34.7176004,21.7079081 C34.1269239,21.1172317 33.1763232,21.114401 32.5919902,21.6987341 L29.7924243,24.4982999 L29.4684211,24.3324507 C28.5102766,23.8420003 27.5030465,23.4513435 26.4606212,23.1677437 L26.0918792,23.0674246 L26.0918792,19.0062999 C26.0918792,18.1776952 25.4185327,17.5097536 24.5823588,17.5097536 L19.2341017,17.5097536 C18.3987591,17.5097536 17.7245813,18.1799282 17.7245813,19.0062999 L17.7245813,23.3031451 L17.3823638,23.416952 C16.438324,23.7308993 15.5280579,24.1342198 14.662631,24.6206611 L14.3321532,24.8064169 L11.2244703,21.6987341 C10.6385583,21.1128221 9.69012441,21.1166439 9.09886015,21.7079081 L5.3170713,25.489697 C4.72639488,26.0803734 4.72356416,27.0309741 5.30789722,27.6153072 L8.53324934,30.8406593 L8.36740011,31.1646625 C7.94203736,31.9956517 7.59163296,32.8637803 7.3210597,33.7599377 L7.21373088,34.1154181 L2.6154631,34.1154181 C1.7868584,34.1154181 1.11891679,34.7887646 1.11891679,35.6249386 L1.11891679,40.9731956 C1.11891679,41.8085382 1.78909136,42.4827161 2.6154631,42.4827161 L7.21373088,42.4827161 L7.3210597,42.8381965 C7.59163296,43.7343539 7.94203736,44.6024825 8.36740011,45.4334717 L8.53324934,45.7574749 L5.30789722,48.982827 C4.72198522,49.568739 4.72580704,50.5171729 5.3170713,51.1084372 L9.09886015,54.8902261 C9.68953657,55.4809025 10.6401373,55.4837332 11.2244703,54.8994001 L14.3321532,51.7917173 L14.662631,51.9774731 C15.5280579,52.4639143 16.438324,52.8672349 17.3823638,53.1811821 L17.7245813,53.2949891 L17.7245813,57.5918343 C17.7245813,58.420439 18.3979278,59.0883806 19.2341017,59.0883806 L24.5823588,59.0883806 C25.4177014,59.0883806 26.0918792,58.418206 26.0918792,57.5918343 L26.0918792,53.5307096 L26.4606212,53.4303905 C27.5030465,53.1467907 28.5102766,52.7561339 29.4684211,52.2656835 L29.7924243,52.0998343 L32.5919902,54.8994001 C33.1779022,55.4853121 34.1263361,55.4814903 34.7176004,54.8902261 L38.4993892,51.1084372 C39.0900656,50.5177608 39.0928963,49.5671601 38.5085633,48.982827 Z M6.47545298,33.1154181 L6.84240104,33.1154181 L6.36374238,33.4708986 C6.39966088,33.3519341 6.43690099,33.2334343 6.47545259,33.1154181 Z M22.3340165,45.6116474 C18.2953899,45.6116474 15.0214362,42.3376937 15.0214362,38.2990671 C15.0214362,34.2604405 18.2953899,30.9864868 22.3340165,30.9864868 C26.3726431,30.9864868 29.6465968,34.2604405 29.6465968,38.2990671 C29.6465968,42.3376937 26.3726431,45.6116474 22.3340165,45.6116474 Z" id="Combined-Shape-Copy"></path>
                    </g>
                </g>
            </g>
        </g>
    </g>
</svg>